<svg width="102" height="30" viewBox="0 0 204 60" fill="none" xmlns="http://www.w3.org/2000/svg">
<rect x="1.09277" y="1.42188" width="201.805" height="56.9541" rx="28" stroke="#966600" stroke-width="2"/>
<path d="M30.3786 40.9224V21.2391H37.0294C38.5736 21.2391 39.8358 21.5178 40.8161 22.0753C41.8029 22.6263 42.5333 23.3728 43.0074 24.3146C43.4816 25.2565 43.7186 26.3073 43.7186 27.467C43.7186 28.6267 43.4816 29.6807 43.0074 30.629C42.5397 31.5773 41.8157 32.3334 40.8354 32.8972C39.855 33.4547 38.5992 33.7334 37.0679 33.7334H32.3008V31.619H36.991C38.0482 31.619 38.8971 31.4363 39.5379 31.0711C40.1786 30.7059 40.6431 30.2126 40.9315 29.591C41.2262 28.9631 41.3736 28.2551 41.3736 27.467C41.3736 26.6789 41.2262 25.9741 40.9315 25.3526C40.6431 24.7311 40.1754 24.2442 39.5283 23.8917C38.8811 23.5329 38.0225 23.3535 36.9525 23.3535H32.7622V40.9224H30.3786ZM47.2507 40.9224V26.1599H49.442V28.3897H49.5957C49.8648 27.6592 50.3518 27.0666 51.0566 26.6116C51.7614 26.1567 52.5559 25.9293 53.4401 25.9293C53.6067 25.9293 53.815 25.9325 54.0648 25.9389C54.3147 25.9453 54.5037 25.9549 54.6319 25.9677V28.2743C54.555 28.2551 54.3788 28.2263 54.1033 28.1878C53.8342 28.143 53.549 28.1206 53.2479 28.1206C52.5303 28.1206 51.8896 28.2711 51.3257 28.5723C50.7683 28.867 50.3262 29.2771 49.9994 29.8025C49.679 30.3215 49.5189 30.9142 49.5189 31.5805V40.9224H47.2507ZM63.0607 41.2299C61.6383 41.2299 60.4113 40.916 59.3797 40.288C58.3545 39.6537 57.5632 38.7695 57.0058 37.6354C56.4548 36.4949 56.1792 35.1686 56.1792 33.6565C56.1792 32.1444 56.4548 30.8116 57.0058 29.6583C57.5632 28.4986 58.3385 27.5952 59.3316 26.948C60.3312 26.2945 61.4973 25.9677 62.83 25.9677C63.5989 25.9677 64.3582 26.0959 65.1078 26.3522C65.8575 26.6084 66.5399 27.0249 67.155 27.6016C67.7701 28.1718 68.2602 28.9279 68.6254 29.8698C68.9907 30.8116 69.1733 31.9714 69.1733 33.3489V34.31H57.7939V32.3494H66.8666C66.8666 31.5164 66.7 30.7732 66.3669 30.1196C66.0401 29.4661 65.5724 28.9503 64.9637 28.5723C64.3614 28.1943 63.6502 28.0052 62.83 28.0052C61.9266 28.0052 61.1449 28.2295 60.485 28.678C59.8314 29.1201 59.3284 29.6968 58.976 30.408C58.6236 31.1192 58.4474 31.8817 58.4474 32.6954V34.0025C58.4474 35.1173 58.6397 36.0624 59.0241 36.8377C59.4149 37.6066 59.9564 38.1929 60.6483 38.5965C61.3403 38.9938 62.1444 39.1924 63.0607 39.1924C63.6566 39.1924 64.1948 39.1091 64.6753 38.9425C65.1623 38.7695 65.582 38.5132 65.9344 38.1736C66.2868 37.8276 66.5591 37.3983 66.7513 36.8858L68.9426 37.5009C68.7119 38.2441 68.3243 38.8977 67.7797 39.4615C67.2351 40.0189 66.5623 40.4546 65.7614 40.7686C64.9605 41.0761 64.0602 41.2299 63.0607 41.2299ZM81.0812 31.4267V33.5411H72.4698V31.4267H81.0812ZM85.0722 40.9224V26.1599H87.2635V28.3897H87.4173C87.6864 27.6592 88.1733 27.0666 88.8781 26.6116C89.5829 26.1567 90.3774 25.9293 91.2616 25.9293C91.4282 25.9293 91.6365 25.9325 91.8864 25.9389C92.1362 25.9453 92.3253 25.9549 92.4534 25.9677V28.2743C92.3765 28.2551 92.2003 28.2263 91.9248 28.1878C91.6557 28.143 91.3706 28.1206 91.0694 28.1206C90.3518 28.1206 89.7111 28.2711 89.1472 28.5723C88.5898 28.867 88.1477 29.2771 87.8209 29.8025C87.5006 30.3215 87.3404 30.9142 87.3404 31.5805V40.9224H85.0722ZM100.882 41.2299C99.4598 41.2299 98.2328 40.916 97.2012 40.288C96.176 39.6537 95.3847 38.7695 94.8273 37.6354C94.2763 36.4949 94.0008 35.1686 94.0008 33.6565C94.0008 32.1444 94.2763 30.8116 94.8273 29.6583C95.3847 28.4986 96.16 27.5952 97.1532 26.948C98.1527 26.2945 99.3188 25.9677 100.652 25.9677C101.42 25.9677 102.18 26.0959 102.929 26.3522C103.679 26.6084 104.361 27.0249 104.976 27.6016C105.592 28.1718 106.082 28.9279 106.447 29.8698C106.812 30.8116 106.995 31.9714 106.995 33.3489V34.31H95.6154V32.3494H104.688C104.688 31.5164 104.522 30.7732 104.188 30.1196C103.862 29.4661 103.394 28.9503 102.785 28.5723C102.183 28.1943 101.472 28.0052 100.652 28.0052C99.7481 28.0052 98.9664 28.2295 98.3065 28.678C97.6529 29.1201 97.15 29.6968 96.7975 30.408C96.4451 31.1192 96.2689 31.8817 96.2689 32.6954V34.0025C96.2689 35.1173 96.4612 36.0624 96.8456 36.8377C97.2364 37.6066 97.7779 38.1929 98.4699 38.5965C99.1618 38.9938 99.966 39.1924 100.882 39.1924C101.478 39.1924 102.016 39.1091 102.497 38.9425C102.984 38.7695 103.403 38.5132 103.756 38.1736C104.108 37.8276 104.381 37.3983 104.573 36.8858L106.764 37.5009C106.533 38.2441 106.146 38.8977 105.601 39.4615C105.057 40.0189 104.384 40.4546 103.583 40.7686C102.782 41.0761 101.882 41.2299 100.882 41.2299ZM112.713 21.2391V40.9224H110.445V21.2391H112.713ZM123.057 41.2299C121.635 41.2299 120.408 40.916 119.376 40.288C118.351 39.6537 117.56 38.7695 117.002 37.6354C116.451 36.4949 116.176 35.1686 116.176 33.6565C116.176 32.1444 116.451 30.8116 117.002 29.6583C117.56 28.4986 118.335 27.5952 119.328 26.948C120.328 26.2945 121.494 25.9677 122.826 25.9677C123.595 25.9677 124.355 26.0959 125.104 26.3522C125.854 26.6084 126.536 27.0249 127.151 27.6016C127.766 28.1718 128.257 28.9279 128.622 29.8698C128.987 30.8116 129.17 31.9714 129.17 33.3489V34.31H117.79V32.3494H126.863C126.863 31.5164 126.696 30.7732 126.363 30.1196C126.036 29.4661 125.569 28.9503 124.96 28.5723C124.358 28.1943 123.647 28.0052 122.826 28.0052C121.923 28.0052 121.141 28.2295 120.481 28.678C119.828 29.1201 119.325 29.6968 118.972 30.408C118.62 31.1192 118.444 31.8817 118.444 32.6954V34.0025C118.444 35.1173 118.636 36.0624 119.02 36.8377C119.411 37.6066 119.953 38.1929 120.645 38.5965C121.337 38.9938 122.141 39.1924 123.057 39.1924C123.653 39.1924 124.191 39.1091 124.672 38.9425C125.159 38.7695 125.578 38.5132 125.931 38.1736C126.283 37.8276 126.555 37.3983 126.748 36.8858L128.939 37.5009C128.708 38.2441 128.321 38.8977 127.776 39.4615C127.231 40.0189 126.559 40.4546 125.758 40.7686C124.957 41.0761 124.057 41.2299 123.057 41.2299ZM136.964 41.2684C136.029 41.2684 135.18 41.0922 134.417 40.7398C133.655 40.3809 133.049 39.8652 132.601 39.1924C132.152 38.5132 131.928 37.6931 131.928 36.732C131.928 35.8862 132.095 35.2006 132.428 34.6752C132.761 34.1434 133.206 33.727 133.764 33.4258C134.321 33.1247 134.936 32.9004 135.609 32.7531C136.288 32.5993 136.971 32.4775 137.656 32.3878C138.553 32.2725 139.28 32.186 139.838 32.1283C140.402 32.0643 140.812 31.9585 141.068 31.8112C141.331 31.6638 141.462 31.4075 141.462 31.0423V30.9654C141.462 30.0171 141.203 29.2803 140.684 28.7549C140.171 28.2295 139.393 27.9668 138.348 27.9668C137.265 27.9668 136.416 28.2039 135.801 28.678C135.186 29.1521 134.754 29.6583 134.504 30.1965L132.351 29.4277C132.735 28.5306 133.248 27.8322 133.889 27.3325C134.536 26.8263 135.241 26.4739 136.003 26.2753C136.772 26.0702 137.528 25.9677 138.271 25.9677C138.745 25.9677 139.29 26.0254 139.905 26.1407C140.527 26.2496 141.126 26.4771 141.702 26.8231C142.285 27.1691 142.769 27.6913 143.154 28.3897C143.538 29.0881 143.73 30.0235 143.73 31.1961V40.9224H141.462V38.9233H141.347C141.193 39.2436 140.937 39.5864 140.578 39.9517C140.219 40.3169 139.742 40.6276 139.146 40.8839C138.55 41.1402 137.823 41.2684 136.964 41.2684ZM137.31 39.2308C138.207 39.2308 138.963 39.0546 139.578 38.7022C140.2 38.3498 140.668 37.8949 140.982 37.3375C141.302 36.78 141.462 36.1938 141.462 35.5787V33.5027C141.366 33.618 141.155 33.7238 140.828 33.8199C140.507 33.9096 140.136 33.9897 139.713 34.0601C139.296 34.1242 138.89 34.1819 138.492 34.2331C138.101 34.278 137.784 34.3164 137.541 34.3485C136.951 34.4254 136.4 34.5503 135.888 34.7233C135.382 34.8899 134.971 35.143 134.658 35.4826C134.35 35.8157 134.196 36.2707 134.196 36.8473C134.196 37.6354 134.488 38.2313 135.071 38.635C135.66 39.0322 136.407 39.2308 137.31 39.2308ZM158.327 29.4661L156.289 30.0428C156.161 29.7032 155.972 29.3732 155.722 29.0528C155.479 28.7261 155.146 28.457 154.723 28.2455C154.3 28.0341 153.758 27.9283 153.099 27.9283C152.195 27.9283 151.442 28.1366 150.84 28.5531C150.244 28.9631 149.946 29.4853 149.946 30.1196C149.946 30.6835 150.151 31.1288 150.561 31.4556C150.971 31.7823 151.612 32.0547 152.483 32.2725L154.675 32.8107C155.995 33.1311 156.978 33.6212 157.625 34.2812C158.272 34.9347 158.596 35.7773 158.596 36.8089C158.596 37.6546 158.353 38.4107 157.866 39.0771C157.385 39.7434 156.712 40.2688 155.847 40.6533C154.982 41.0377 153.976 41.2299 152.829 41.2299C151.324 41.2299 150.077 40.9031 149.091 40.2496C148.104 39.5961 147.479 38.6414 147.217 37.3855L149.369 36.8473C149.575 37.6418 149.962 38.2377 150.532 38.635C151.109 39.0322 151.862 39.2308 152.791 39.2308C153.848 39.2308 154.688 39.0066 155.309 38.5581C155.937 38.1031 156.251 37.5585 156.251 36.9242C156.251 36.4116 156.072 35.9823 155.713 35.6363C155.354 35.2839 154.803 35.0212 154.06 34.8482L151.599 34.2716C150.247 33.9512 149.254 33.4547 148.62 32.7819C147.992 32.1027 147.678 31.2537 147.678 30.235C147.678 29.402 147.912 28.6652 148.38 28.0245C148.854 27.3837 149.498 26.8808 150.311 26.5155C151.131 26.1503 152.061 25.9677 153.099 25.9677C154.559 25.9677 155.706 26.2881 156.539 26.9288C157.379 27.5695 157.974 28.4153 158.327 29.4661ZM168.2 41.2299C166.777 41.2299 165.55 40.916 164.519 40.288C163.494 39.6537 162.702 38.7695 162.145 37.6354C161.594 36.4949 161.318 35.1686 161.318 33.6565C161.318 32.1444 161.594 30.8116 162.145 29.6583C162.702 28.4986 163.478 27.5952 164.471 26.948C165.47 26.2945 166.636 25.9677 167.969 25.9677C168.738 25.9677 169.497 26.0959 170.247 26.3522C170.997 26.6084 171.679 27.0249 172.294 27.6016C172.909 28.1718 173.399 28.9279 173.764 29.8698C174.13 30.8116 174.312 31.9714 174.312 33.3489V34.31H162.933V32.3494H172.006C172.006 31.5164 171.839 30.7732 171.506 30.1196C171.179 29.4661 170.711 28.9503 170.103 28.5723C169.5 28.1943 168.789 28.0052 167.969 28.0052C167.066 28.0052 166.284 28.2295 165.624 28.678C164.97 29.1201 164.467 29.6968 164.115 30.408C163.763 31.1192 163.586 31.8817 163.586 32.6954V34.0025C163.586 35.1173 163.779 36.0624 164.163 36.8377C164.554 37.6066 165.095 38.1929 165.787 38.5965C166.479 38.9938 167.284 39.1924 168.2 39.1924C168.796 39.1924 169.334 39.1091 169.814 38.9425C170.301 38.7695 170.721 38.5132 171.073 38.1736C171.426 37.8276 171.698 37.3983 171.89 36.8858L174.082 37.5009C173.851 38.2441 173.463 38.8977 172.919 39.4615C172.374 40.0189 171.701 40.4546 170.9 40.7686C170.1 41.0761 169.199 41.2299 168.2 41.2299Z" fill="#C69026"/>
</svg>
